<?xml version="1.0" encoding="utf-8"?>
<!-- Generator: Adobe Illustrator 27.2.0, SVG Export Plug-In . SVG Version: 6.00 Build 0)  -->
<svg version="1.1" id="Outline" xmlns="http://www.w3.org/2000/svg" xmlns:xlink="http://www.w3.org/1999/xlink" x="0px" y="0px"
	 viewBox="0 0 512 512" style="enable-background:new 0 0 512 512;" xml:space="preserve">
<style type="text/css">
	.st0{fill:#FFFFFF;}
</style>
<path class="st0" d="M256,366.3c-28.3,0.1-55.5-11.2-75.5-31.1L6.2,160.9c-8.4-8.4-8.4-21.9,0-30.3s21.9-8.4,30.3,0l174.3,174.3
	c25,25,65.5,25,90.5,0l174.3-174.3c8.4-8.4,21.9-8.4,30.3,0c8.4,8.4,8.4,21.9,0,30.3L331.5,335.1C311.5,355.1,284.3,366.3,256,366.3
	z"/>
<path class="st0" d="M256,188.7c-16.9,0.1-33.1-6.7-45.1-18.6L106.8,66.1c-5-5-5-13.1,0-18.1c5-5,13.1-5,18.1,0L229,152.1
	c14.9,14.9,39.1,14.9,54.1,0L387.2,47.9c5-5,13.1-5,18.1,0c5,5,5,13.1,0,18.1L301.1,170.1C289.1,182,272.9,188.7,256,188.7z"/>
</svg>
