<?xml version="1.0" encoding="UTF-8"?>
<svg id="Capa_2" data-name="Capa 2" xmlns="http://www.w3.org/2000/svg" viewBox="0 0 99.41 85.06">
  <defs>
    <style>
      .cls-1 {
        fill: #172228;
      }
    </style>
  </defs>
  <g id="Capa_1-2" data-name="Capa 1">
    <g>
      <path class="cls-1" d="m99.41,35.47c0-4.94-2.82-9.22-6.93-11.35,4.11-2.12,6.93-6.41,6.93-11.35,0-7.04-5.73-12.77-12.77-12.77H12.77C5.73,0,0,5.73,0,12.77c0,4.94,2.82,9.22,6.94,11.35-4.11,2.12-6.94,6.41-6.94,11.35s2.82,9.22,6.94,11.35c-4.11,2.12-6.94,6.41-6.94,11.35,0,7.04,5.73,12.77,12.77,12.77h18.81c.79,0,1.43-.64,1.43-1.43s-.64-1.43-1.43-1.43h-10.78c2.89-2.34,4.74-5.92,4.74-9.92s-1.85-7.58-4.74-9.92h6.44c4,0,7.25,4.45,7.25,9.92,0,.12.04.22.07.33-.03.11-.07.21-.07.33v24.8c0,.79.64,1.43,1.43,1.43h47.57c.79,0,1.43-.64,1.43-1.43v-12.69h1.72c7.04,0,12.77-5.73,12.77-12.77,0-4.94-2.82-9.22-6.93-11.35,4.11-2.12,6.93-6.41,6.93-11.35ZM86.64,2.85c5.47,0,9.92,4.45,9.92,9.92s-4.45,9.92-9.92,9.92H20.8c2.89-2.34,4.74-5.92,4.74-9.92s-1.85-7.58-4.74-9.92h65.83ZM2.85,12.77C2.85,7.3,7.3,2.85,12.77,2.85s9.92,4.45,9.92,9.92-4.45,9.92-9.92,9.92S2.85,18.25,2.85,12.77Zm0,22.7c0-5.47,4.45-9.92,9.92-9.92s9.92,4.45,9.92,9.92-4.45,9.92-9.92,9.92-9.92-4.45-9.92-9.92Zm19.84,22.7c0,5.47-4.45,9.92-9.92,9.92s-9.92-4.45-9.92-9.92,4.45-9.92,9.92-9.92,9.92,4.45,9.92,9.92Zm59.37,24.04h-44.72v-23.37c0-.12-.04-.22-.07-.33.03-.11.07-.21.07-.33,0-4-1.47-7.58-3.75-9.92h41.22c4,0,7.25,4.45,7.25,9.92,0,.12.04.22.07.33-.03.11-.07.21-.07.33v23.37Zm14.5-24.04c0,5.47-4.45,9.92-9.92,9.92h-1.72v-9.26c0-.12-.04-.22-.07-.33.03-.11.07-.21.07-.33,0-4-1.47-7.58-3.75-9.92h5.48c5.47,0,9.92,4.45,9.92,9.92Zm-9.92-12.77H20.8c2.89-2.34,4.74-5.92,4.74-9.92s-1.85-7.58-4.74-9.92h65.83c5.47,0,9.92,4.45,9.92,9.92s-4.45,9.92-9.92,9.92Z"/>
      <path class="cls-1" d="m12.77,11.06c-.95,0-1.71.77-1.71,1.71s.77,1.71,1.71,1.71,1.71-.77,1.71-1.71-.77-1.71-1.71-1.71Z"/>
      <path class="cls-1" d="m12.77,33.76c-.95,0-1.71.77-1.71,1.71s.77,1.71,1.71,1.71,1.71-.77,1.71-1.71-.77-1.71-1.71-1.71Z"/>
      <path class="cls-1" d="m12.77,59.88c.95,0,1.71-.77,1.71-1.71s-.77-1.71-1.71-1.71-1.71.77-1.71,1.71.77,1.71,1.71,1.71Z"/>
      <path class="cls-1" d="m73.1,70.95h-26.79c-.79,0-1.43.64-1.43,1.43s.64,1.43,1.43,1.43h26.79c.79,0,1.43-.64,1.43-1.43s-.64-1.43-1.43-1.43Z"/>
      <path class="cls-1" d="m73.1,62.99h-26.79c-.79,0-1.43.64-1.43,1.43s.64,1.43,1.43,1.43h26.79c.79,0,1.43-.64,1.43-1.43s-.64-1.43-1.43-1.43Z"/>
      <path class="cls-1" d="m73.1,55.03h-26.79c-.79,0-1.43.64-1.43,1.43s.64,1.43,1.43,1.43h26.79c.79,0,1.43-.64,1.43-1.43s-.64-1.43-1.43-1.43Z"/>
    </g>
  </g>
</svg>