<?xml version="1.0" encoding="UTF-8"?>
<svg id="Capa_2" data-name="Capa 2" xmlns="http://www.w3.org/2000/svg" viewBox="0 0 99.24 102.55">
  <g id="Capa_1-2" data-name="Capa 1">
    <g>
      <path d="m62.3,99.3c-.06,0-.13,0-.19-.01-12.71-1.56-21.57-4.21-28.69-6.33-5.53-1.65-9.89-2.95-13.73-2.95-.86,0-1.55-.7-1.55-1.55s.7-1.55,1.55-1.55c4.29,0,8.85,1.36,14.62,3.08,7.01,2.09,15.74,4.7,28.18,6.23.85.1,1.46.88,1.35,1.73-.1.79-.77,1.36-1.54,1.36Z"/>
      <path d="m58.19,57.57c-.39,0-.79-.15-1.09-.44-.61-.6-.62-1.58-.02-2.2,5.23-5.33,2.88-11.99,1.87-14.83l-.02-.06c-1.41-3.98-1.5-7.41-.25-9.66,1.06-1.92,3.1-5.73,4-7.62,3.08-6.4,1.39-12.67-.99-16.09-1.67-2.4-3.82-3.72-5.75-3.55-2.25.21-3.68,3.28-4.08,6.23-1,7.25-4.04,14.23-8.14,18.68-4.94,5.36-8.5,10.13-12.29,16.47-2.29,3.82-7.73,5.32-11.89,5.91-.85.12-1.64-.47-1.76-1.32-.12-.85.47-1.64,1.32-1.76,4.94-.7,8.36-2.27,9.66-4.43,3.91-6.53,7.58-11.45,12.67-16.98,3.68-4,6.43-10.36,7.35-17,.29-2.13.99-4.13,1.95-5.63,1.26-1.96,2.96-3.09,4.92-3.27,3.06-.28,6.27,1.54,8.59,4.87,2.86,4.11,4.89,11.6,1.24,19.21-.93,1.94-3.01,5.83-4.09,7.78-.61,1.1-.8,3.54.46,7.11l.02.06c.99,2.8,4.01,11.32-2.58,18.04-.3.31-.71.47-1.11.47Z"/>
      <path d="m14.18,95.89h-7.48c-3.7,0-6.7-3.01-6.7-6.7v-41.75c0-3.7,3.01-6.7,6.7-6.7h7.48c3.7,0,6.7,3.01,6.7,6.7v41.75c0,3.7-3.01,6.7-6.7,6.7Zm-7.48-52.05c-1.98,0-3.6,1.61-3.6,3.6v41.75c0,1.98,1.61,3.6,3.6,3.6h7.48c1.98,0,3.6-1.61,3.6-3.6v-41.75c0-1.98-1.61-3.6-3.6-3.6h-7.48Z"/>
      <path d="m90.42,61.54c-.46,0-.92-.04-1.38-.11l-9.23-1.46c-2.33-.37-4.37-1.62-5.76-3.52-1.39-1.9-1.95-4.23-1.58-6.56.25-1.61.94-3.11,1.99-4.34.56-.65,1.54-.73,2.19-.17.65.56.73,1.54.17,2.19-.68.8-1.13,1.77-1.29,2.81-.24,1.51.13,3.01,1.02,4.25s2.22,2.04,3.73,2.28l9.23,1.46c3.11.49,6.04-1.64,6.53-4.75.51-3.22-1.59-6.36-5.09-7.62-9.71-3.49-19.62-4.74-23.43-5.12l-.24-.02c-1.13-.12-1.49-1.04-1.47-1.63.04-.83.74-1.48,1.57-1.48.1,0,.19,0,.29.03.04,0,.09,0,.15.02,4.88.48,14.5,1.81,24.18,5.28,4.93,1.77,7.86,6.31,7.11,11.03-.68,4.34-4.44,7.44-8.7,7.44Z"/>
      <path d="m89.91,76.12c-.46,0-.93-.04-1.39-.11l-13.46-2.07c-4.81-.76-8.1-5.28-7.34-10.08.26-1.64.97-3.17,2.06-4.42.56-.65,1.55-.71,2.19-.15.65.56.71,1.55.15,2.19-.7.81-1.16,1.79-1.33,2.86-.49,3.11,1.64,6.04,4.75,6.53l13.46,2.07c1.51.24,3.02-.12,4.25-1.02,1.23-.9,2.04-2.22,2.28-3.73.24-1.51-.13-3.01-1.02-4.25-.89-1.23-2.21-2.04-3.71-2.28l-1.72-.23c-.85-.11-1.45-.89-1.34-1.75.11-.85.9-1.45,1.75-1.34l1.74.23s.02,0,.04,0c2.33.37,4.37,1.62,5.76,3.52,1.39,1.9,1.95,4.23,1.58,6.56-.37,2.33-1.62,4.37-3.52,5.75-1.52,1.11-3.32,1.69-5.17,1.69Z"/>
      <path d="m85.67,89.67c-.44,0-.89-.03-1.34-.11l-8.94-1.41c-2.26-.36-4.26-1.58-5.6-3.43-1.35-1.85-1.89-4.12-1.54-6.39.11-.72.32-1.42.61-2.08.34-.79,1.26-1.15,2.04-.81.79.34,1.15,1.26.81,2.04-.18.42-.31.87-.39,1.33-.23,1.45.12,2.89.98,4.08.86,1.18,2.13,1.96,3.57,2.19l8.94,1.41c2.99.47,5.79-1.57,6.26-4.56.47-2.97-1.57-5.77-4.56-6.24-.85-.13-1.43-.93-1.29-1.78s.93-1.43,1.78-1.29c4.67.74,7.88,5.13,7.14,9.8-.67,4.22-4.33,7.25-8.47,7.25Z"/>
      <path d="m80.42,102.55c-.39,0-.79-.03-1.19-.09l-5.87-.97c-2.1-.33-3.94-1.51-5.17-3.31-1.22-1.77-1.7-3.95-1.35-6.12.16-1,.48-1.95.96-2.82.41-.75,1.36-1.02,2.11-.61.75.41,1.03,1.36.61,2.11-.31.56-.51,1.17-.62,1.81-.22,1.39.08,2.76.85,3.88.75,1.09,1.85,1.8,3.11,2l5.87.97c2.62.41,5.12-1.55,5.56-4.38.22-1.39-.08-2.78-.84-3.91-.74-1.1-1.84-1.81-3.09-2.01-.85-.13-1.43-.93-1.29-1.78.13-.85.93-1.43,1.78-1.29,2.11.33,3.95,1.52,5.18,3.34,1.21,1.78,1.68,3.96,1.34,6.13-.65,4.1-4.08,7.05-7.94,7.05Z"/>
      <path d="m10.44,87.19c-.86,0-1.55-.7-1.55-1.55v-1.49c0-.86.7-1.55,1.55-1.55s1.55.7,1.55,1.55v1.49c0,.86-.7,1.55-1.55,1.55Z"/>
    </g>
  </g>
</svg>