<?xml version="1.0" encoding="UTF-8"?>
<svg id="Capa_2" data-name="Capa 2" xmlns="http://www.w3.org/2000/svg" viewBox="0 0 79.74 93.53">
  <defs>
    <style>
      .cls-1 {
        fill: #20201d;
      }
    </style>
  </defs>
  <g id="Capa_1-2" data-name="Capa 1">
    <g>
      <g>
        <path d="m78.4,93.53h-31c-.74,0-1.33-.6-1.33-1.33v-29.12c0-.74.6-1.33,1.33-1.33h31c.74,0,1.33.6,1.33,1.33v29.12c0,.74-.6,1.33-1.33,1.33Zm-29.67-2.67h28.33v-26.45h-28.33v26.45Z"/>
        <path d="m78.4,64.4h-31c-.43,0-.83-.21-1.08-.55-.25-.35-.32-.8-.18-1.2l2.82-8.46c.18-.54.69-.91,1.27-.91h25.37c.57,0,1.08.37,1.27.91l2.82,8.46c.14.41.07.85-.18,1.2-.25.35-.65.55-1.08.55Zm-29.15-2.67h27.3l-1.93-5.79h-23.44l-1.93,5.79Z"/>
        <path d="m66.66,70.83h-7.52c-.74,0-1.33-.6-1.33-1.33v-6.43c0-.74.6-1.33,1.33-1.33h7.52c.74,0,1.33.6,1.33,1.33v6.43c0,.74-.6,1.33-1.33,1.33Zm-6.18-2.67h4.85v-3.76h-4.85v3.76Z"/>
      </g>
      <g>
        <g>
          <g>
            <path class="cls-1" d="m41.45,47.82c-.12,0-.25-.02-.38-.05-.71-.21-1.11-.95-.9-1.66l1.18-4c.21-.71.95-1.11,1.66-.9.71.21,1.11.95.9,1.66l-1.18,4c-.17.58-.7.96-1.28.96Z"/>
            <path class="cls-1" d="m37.14,62.5h-18.68c-.43,0-.83-.21-1.08-.55-.25-.35-.32-.79-.19-1.2l6.99-21.35c.66-2.01,2.72-3.59,4.7-3.59h2.56c.74,0,1.33.6,1.33,1.33s-.6,1.33-1.33,1.33h-2.56c-.83,0-1.86.83-2.16,1.75l-6.41,19.6h15.84l1.29-4.38c.21-.71.95-1.11,1.66-.9.71.21,1.11.95.9,1.66l-1.57,5.34c-.17.57-.69.96-1.28.96Z"/>
            <path class="cls-1" d="m47.79,43.82h-18.06c-.43,0-.83-.2-1.08-.55-.25-.34-.32-.79-.19-1.19l.85-2.67c.12-.39.07-.66-.01-.78-.09-.13-.28-.15-.42-.15-.74,0-1.33-.6-1.33-1.33s.6-1.33,1.33-1.33h17.88c1.05,0,2,.45,2.59,1.24.64.84.81,1.98.49,3.13l-.76,2.67c-.16.57-.69.97-1.28.97Zm-16.24-2.67h15.23l.48-1.7c.09-.33.07-.63-.05-.79-.09-.12-.24-.18-.46-.18h-14.74c.08.55.02,1.14-.16,1.74l-.3.93Z"/>
          </g>
          <path class="cls-1" d="m39.82,57.17h-2.24c-.81,0-1.54-.35-1.99-.96-.47-.63-.6-1.47-.35-2.3l1.47-4.93c.42-1.42,1.82-2.49,3.24-2.49h2.21c.8,0,1.52.35,1.97.95.47.63.61,1.46.37,2.3l-1.43,4.93c-.41,1.43-1.81,2.5-3.25,2.5Zm-1.97-2.67h1.97c.23,0,.6-.28.69-.58l1.38-4.76h-1.93c-.2,0-.59.26-.68.59l-1.42,4.75Z"/>
        </g>
        <path class="cls-1" d="m9.37,93.42c-.74,0-1.33-.6-1.33-1.33v-34.7c0-.74.6-1.33,1.33-1.33s1.33.6,1.33,1.33v34.7c0,.74-.6,1.33-1.33,1.33Z"/>
        <path class="cls-1" d="m33.4,93.42c-.74,0-1.33-.6-1.33-1.33v-29.36c0-.74.6-1.33,1.33-1.33s1.33.6,1.33,1.33v29.36c0,.74-.6,1.33-1.33,1.33Z"/>
        <path class="cls-1" d="m21.38,93.42c-.74,0-1.33-.6-1.33-1.33v-21.35c0-.74.6-1.33,1.33-1.33s1.33.6,1.33,1.33v21.35c0,.74-.6,1.33-1.33,1.33Z"/>
        <path class="cls-1" d="m39.56,38.33c-.6,0-1.15-.41-1.3-1.02-1.54-6.45-6.59-10.62-12.88-10.62h-10.68c-.74,0-1.33-.6-1.33-1.33s.6-1.33,1.33-1.33h10.68c7.56,0,13.63,4.97,15.47,12.66.17.72-.27,1.44-.99,1.61-.1.02-.21.04-.31.04Z"/>
        <path class="cls-1" d="m20.05,21.35c-5.59,0-9.34-4.29-9.34-10.68S14.46,0,20.05,0s9.34,4.29,9.34,10.68-3.75,10.68-9.34,10.68Zm0-18.68c-4.93,0-6.67,4.31-6.67,8.01s1.75,8.01,6.67,8.01,6.67-4.31,6.67-8.01-1.75-8.01-6.67-8.01Z"/>
        <path class="cls-1" d="m5.34,58.72c-2.94,0-5.34-2.39-5.34-5.34v-14.68c0-8.09,6.59-14.68,14.68-14.68h4.48c.74,0,1.33.6,1.33,1.33s-.6,1.33-1.33,1.33h-4.48c-6.62,0-12.01,5.39-12.01,12.01v14.68c0,1.47,1.2,2.67,2.67,2.67h14.01c.74,0,1.33.6,1.33,1.33s-.6,1.33-1.33,1.33H5.34Z"/>
        <path class="cls-1" d="m22.02,50.71h-12.68c-.74,0-1.33-.6-1.33-1.33v-9.34c0-.74.6-1.33,1.33-1.33s1.33.6,1.33,1.33v8.01h11.34c.74,0,1.33.6,1.33,1.33s-.6,1.33-1.33,1.33Z"/>
        <path class="cls-1" d="m22.27,49.77c-.52,0-1.01-.3-1.23-.81l-1.81-4.23c-.29-.68.02-1.46.7-1.75.68-.29,1.46.02,1.75.7l1.81,4.23c.29.68-.02,1.46-.7,1.75-.17.07-.35.11-.52.11Z"/>
      </g>
    </g>
  </g>
</svg>