<?xml version="1.0" encoding="UTF-8"?>
<svg id="Capa_2" data-name="Capa 2" xmlns="http://www.w3.org/2000/svg" viewBox="0 0 103.84 65.23">
  <defs>
    <style>
      .cls-1 {
        fill: #20201d;
      }
    </style>
  </defs>
  <g id="Capa_1-2" data-name="Capa 1">
    <g>
      <g>
        <path class="cls-1" d="m82.32,65.23c6.64,0,12.05-5.4,12.05-12.05s-5.4-12.04-12.05-12.04-12.05,5.4-12.05,12.04,5.4,12.05,12.05,12.05Zm0-19.01c3.84,0,6.96,3.12,6.96,6.96s-3.12,6.96-6.96,6.96-6.96-3.12-6.96-6.96,3.12-6.96,6.96-6.96Z"/>
        <path class="cls-1" d="m23.4,65.23c6.64,0,12.05-5.4,12.05-12.05s-5.4-12.04-12.05-12.04-12.05,5.4-12.05,12.04,5.4,12.05,12.05,12.05Zm0-19.01c3.84,0,6.96,3.12,6.96,6.96s-3.12,6.96-6.96,6.96-6.96-3.12-6.96-6.96,3.12-6.96,6.96-6.96Z"/>
        <g>
          <path class="cls-1" d="m65.75,53.57h7.35c1.41,0,2.54-1.14,2.54-2.54s-1.14-2.54-2.54-2.54h-4.42l5.33-37.53h15.26l9.38,17.05-2.81,20.48h-2.83c-1.41,0-2.54,1.14-2.54,2.54s1.14,2.54,2.54,2.54h5.04c1.27,0,2.35-.94,2.52-2.2l3.22-23.51c.07-.54-.03-1.09-.29-1.57l-10.52-19.1c-.45-.81-1.3-1.32-2.23-1.32h-18.97c-1.27,0-2.34.93-2.52,2.18l-6.06,42.61c-.1.73.11,1.47.6,2.02.48.56,1.18.88,1.92.88Z"/>
          <path class="cls-1" d="m78.96,30.06h22.34c1.41,0,2.54-1.14,2.54-2.54s-1.14-2.54-2.54-2.54h-19.42l.76-5.42c.2-1.39-.77-2.68-2.16-2.87-1.42-.21-2.68.77-2.87,2.16l-1.17,8.32c-.1.73.12,1.47.6,2.02.48.55,1.18.87,1.92.87Z"/>
          <path class="cls-1" d="m3.3,53.57h10.47c1.41,0,2.54-1.14,2.54-2.54s-1.14-2.54-2.54-2.54h-7.5l1.68-10.76c.22-1.39-.73-2.69-2.12-2.9-1.42-.2-2.69.73-2.9,2.12l-2.13,13.7c-.11.73.1,1.48.58,2.05.48.56,1.19.89,1.93.89Z"/>
          <path class="cls-1" d="m34.93,53.57h30.82c1.27,0,2.34-.93,2.52-2.18l6.89-48.49c.1-.73-.11-1.47-.6-2.02-.48-.56-1.18-.88-1.92-.88H24.58c-1.41,0-2.54,1.14-2.54,2.54s1.14,2.54,2.54,2.54h45.14l-6.17,43.4h-28.62c-1.41,0-2.54,1.14-2.54,2.54s1.14,2.54,2.54,2.54Z"/>
        </g>
      </g>
      <path class="cls-1" d="m10.27,16.16h30.89c1.41,0,2.54-1.14,2.54-2.54s-1.14-2.54-2.54-2.54H10.27c-1.41,0-2.54,1.14-2.54,2.54s1.14,2.54,2.54,2.54Z"/>
      <path class="cls-1" d="m2.54,25.43h30.89c1.41,0,2.54-1.14,2.54-2.54s-1.14-2.54-2.54-2.54H2.54c-1.41,0-2.54,1.14-2.54,2.54s1.14,2.54,2.54,2.54Z"/>
      <path class="cls-1" d="m14.9,34.7h13.9c1.41,0,2.54-1.14,2.54-2.54s-1.14-2.54-2.54-2.54h-13.9c-1.41,0-2.54,1.14-2.54,2.54s1.14,2.54,2.54,2.54Z"/>
    </g>
  </g>
</svg>